<?xml version="1.0" ?><svg id="Layer_1" style="enable-background:new 0 0 66 66;" version="1.1" viewBox="0 0 66 66" xml:space="preserve" xmlns="http://www.w3.org/2000/svg" xmlns:xlink="http://www.w3.org/1999/xlink"><path d="M62.21,52.94l-8.31-4.93V15.75v-3.04V5.9c0-0.48-0.07-0.94-0.2-1.38c0,0,0,0,0,0c0,0,0,0,0,0c0,0,0,0,0,0  c-0.6-1.99-2.48-3.39-4.56-3.39H9.27c-2.02,0-3.92,0.79-5.34,2.21S1.71,6.66,1.71,8.68v48.63c0,4.17,3.39,7.56,7.56,7.56  c0,0,40.37-0.02,40.43-0.06c2.36-0.29,4.2-2.28,4.2-4.71v-2.24l3.99,2.37c0.68,0.4,1.42,0.59,2.15,0.59c1.45,0,2.86-0.74,3.65-2.08  C64.89,56.73,64.22,54.13,62.21,52.94z M52.84,5.15c0.01,0.03,0.01,0.05,0.02,0.08c0.04,0.22,0.07,0.44,0.07,0.67v2.3H25.04  c-0.27,0-0.49,0.22-0.49,0.49s0.22,0.49,0.49,0.49h27.88v3.04H9.27c-1.95,0-3.53-1.58-3.53-3.53s1.59-3.53,3.53-3.53H52.84z   M4.62,4.03c1.24-1.24,2.89-1.92,4.65-1.92h39.86c1.43,0,2.72,0.82,3.36,2.06H9.27c-2.49,0-4.51,2.03-4.51,4.51  c0,2.49,2.03,4.51,4.51,4.51h43.65v2.06H9.27c-3.63,0-6.57-2.95-6.57-6.57C2.69,6.93,3.37,5.27,4.62,4.03z M9.27,16.24h1.71v47.65  H9.27c-3.4,0-6.2-2.59-6.54-5.9c-0.02-0.22-0.03-0.44-0.03-0.67V12.39C3.99,14.69,6.45,16.24,9.27,16.24z M45.41,63.89H19.79v-3.74  c0-0.93,0.75-1.68,1.68-1.68h22.26c0.93,0,1.68,0.75,1.68,1.68V63.89z M52.92,60.1c0,2.09-1.7,3.79-3.79,3.79h-2.74v-3.74  c0-1.47-1.19-2.66-2.66-2.66H21.47c-1.47,0-2.66,1.19-2.66,2.66v3.74h-6.85V16.24h40.96v31.19l-0.08-0.05  c-0.63-0.38-1.43-0.23-1.9,0.31l-8.35-4.95l0.69-1.17c0.32-0.54,0.41-1.18,0.26-1.79c-0.16-0.61-0.54-1.13-1.09-1.45l-0.71-0.42  l0.49-0.82l0.67,0.4c0.35,0.21,0.74,0.31,1.12,0.31c0.47,0,0.93-0.17,1.31-0.46c0.02,0.25,0.22,0.45,0.48,0.45  c0.27,0,0.49-0.22,0.49-0.49c0-1.39,1.13-2.52,2.52-2.52c0.27,0,0.49-0.22,0.49-0.49V23.67c0-0.27-0.22-0.49-0.49-0.49  c-1.39,0-2.52-1.13-2.52-2.52c0-0.27-0.22-0.49-0.49-0.49H21.39c-0.27,0-0.49,0.22-0.49,0.49c0,1.39-1.13,2.52-2.52,2.52  c-0.27,0-0.49,0.22-0.49,0.49v10.61c0,0.27,0.22,0.49,0.49,0.49c1.39,0,2.52,1.13,2.52,2.52c0,0.27,0.22,0.49,0.49,0.49h6.53  l-2.12,3.57c-0.66,1.12-0.29,2.58,0.83,3.24l0.71,0.42l-0.49,0.82l-0.67-0.4c-1.04-0.62-2.39-0.27-3.01,0.77  c-0.62,1.04-0.27,2.39,0.77,3.01l8.88,5.26c0.34,0.2,0.73,0.31,1.12,0.31c0.18,0,0.37-0.02,0.55-0.07c0.57-0.15,1.05-0.5,1.35-1.01  c0.62-1.04,0.27-2.39-0.77-3.01l-0.67-0.4l0.49-0.82l0.71,0.42c0.37,0.22,0.78,0.33,1.2,0.33c0.2,0,0.39-0.02,0.59-0.07  c0.61-0.16,1.13-0.54,1.45-1.09l0.69-1.17l8.35,4.95c-0.24,0.67,0.01,1.44,0.65,1.82l4.4,2.61V60.1z M48.35,52l-8.33-4.94l2.06-3.48  l8.33,4.94l-1.03,1.74L48.35,52z M41.49,42.66l-2.56,4.33c0,0,0,0,0,0l-0.94,1.59c-0.39,0.66-1.24,0.87-1.9,0.48l-8.96-5.31  c-0.66-0.39-0.87-1.24-0.49-1.9l4.45-7.51c0.26-0.44,0.72-0.68,1.19-0.68c0.24,0,0.48,0.06,0.7,0.19l8.96,5.31  c0.32,0.19,0.54,0.49,0.64,0.85c0.09,0.36,0.04,0.73-0.15,1.05L41.49,42.66C41.49,42.66,41.49,42.66,41.49,42.66z M30.12,48.92  l3.35,1.98c0,0,0,0,0,0l1.09,0.65c0.58,0.34,0.77,1.09,0.43,1.67c-0.17,0.28-0.43,0.48-0.75,0.56c-0.32,0.08-0.64,0.03-0.92-0.13  l-8.88-5.26c-0.58-0.34-0.77-1.09-0.43-1.67c0.23-0.38,0.63-0.6,1.05-0.6c0.21,0,0.42,0.06,0.62,0.17L30.12,48.92z M33.54,49.81  l-2.92-1.73l-2.92-1.73l0.49-0.82l5.85,3.47L33.54,49.81z M46.15,35.05c-0.14-0.55-0.49-1.04-1.01-1.35l-8.88-5.26  c-0.51-0.3-1.1-0.38-1.67-0.24c-0.57,0.15-1.05,0.5-1.35,1.01s-0.38,1.1-0.24,1.67c0.15,0.57,0.5,1.05,1.01,1.35l0.67,0.4  l-0.49,0.82l-0.71-0.42c-1.12-0.67-2.58-0.29-3.24,0.83l-1.75,2.96h-6.65c-0.22-1.54-1.44-2.76-2.97-2.97v-9.7  c1.54-0.22,2.76-1.44,2.97-2.97h23.51c0.22,1.54,1.44,2.76,2.97,2.97v9.7C47.46,33.95,46.69,34.4,46.15,35.05z M38.95,34.01  l-3.35-1.98c0,0,0,0,0,0l-1.09-0.65c-0.28-0.17-0.48-0.43-0.56-0.75c-0.08-0.32-0.03-0.64,0.13-0.92c0.17-0.28,0.43-0.48,0.75-0.56  c0.1-0.03,0.2-0.04,0.3-0.04c0.22,0,0.43,0.06,0.62,0.17l8.88,5.26c0.28,0.17,0.48,0.43,0.56,0.75c0.08,0.32,0.03,0.64-0.13,0.92h0  c-0.34,0.58-1.09,0.77-1.67,0.43L38.95,34.01z M41.38,36.58l-0.49,0.82l-5.85-3.47l0.49-0.82l2.92,1.73L41.38,36.58z M62.85,58.24  c-0.92,1.54-2.92,2.06-4.46,1.14l-9.37-5.56c-0.12-0.07-0.21-0.19-0.24-0.32c-0.03-0.14-0.01-0.28,0.06-0.4l1.39-2.35l1.28-2.16  c0,0,0,0,0,0l0.11-0.18c0.07-0.12,0.19-0.21,0.32-0.24c0.04-0.01,0.09-0.02,0.13-0.02c0.09,0,0.19,0.03,0.27,0.07l9.37,5.56  C63.26,54.7,63.77,56.7,62.85,58.24z"/></svg>