<?xml version="1.0" ?><svg id="Layer_1" style="enable-background:new 0 0 66 66;" version="1.1" viewBox="0 0 66 66" xml:space="preserve" xmlns="http://www.w3.org/2000/svg" xmlns:xlink="http://www.w3.org/1999/xlink"><g><path d="M58.51,1.76H7.49c-3.52,0-6.39,2.87-6.39,6.39v38.03c0,3.52,2.87,6.39,6.39,6.39h14.19v5.22h-2.7   c-2.19,0-3.97,1.78-3.97,3.97v1.49H9.03c-0.27,0-0.49,0.22-0.49,0.49c0,0.27,0.22,0.49,0.49,0.49h47.95c0.27,0,0.49-0.22,0.49-0.49   c0-0.27-0.22-0.49-0.49-0.49h-5.98v-1.49c0-2.19-1.78-3.97-3.97-3.97h-2.7v-5.22h14.19c3.52,0,6.39-2.87,6.39-6.39V8.15   C64.9,4.63,62.03,1.76,58.51,1.76z M50.01,61.76v1.49H15.99v-1.49c0-1.65,1.34-2.99,2.99-2.99h28.03   C48.67,58.77,50.01,60.11,50.01,61.76z M22.67,57.79v-5.06h20.67v5.06H22.67z M63.92,46.18c0,2.98-2.43,5.41-5.41,5.41H7.49   c-2.98,0-5.41-2.43-5.41-5.41V8.15c0-2.98,2.43-5.41,5.41-5.41h51.02c2.98,0,5.41,2.43,5.41,5.41V46.18z"/><path d="M57.91,5.84H8.09c-1.69,0-3.06,1.37-3.06,3.06v31.43c0,1.69,1.37,3.06,3.06,3.06h49.82c1.69,0,3.06-1.37,3.06-3.06V8.91   C60.97,7.22,59.6,5.84,57.91,5.84z M59.99,40.33c0,1.15-0.93,2.08-2.08,2.08H8.09c-1.15,0-2.08-0.93-2.08-2.08V8.91   c0-1.15,0.93-2.08,2.08-2.08h49.82c1.15,0,2.08,0.93,2.08,2.08V40.33z"/><path d="M33,45.25c-1.28,0-2.32,1.04-2.32,2.33c0,1.28,1.04,2.32,2.32,2.32c1.28,0,2.33-1.04,2.33-2.32   C35.33,46.29,34.28,45.25,33,45.25z M33,48.91c-0.74,0-1.34-0.6-1.34-1.34c0-0.74,0.6-1.35,1.34-1.35c0.74,0,1.35,0.6,1.35,1.35   C34.34,48.31,33.74,48.91,33,48.91z"/><path d="M26.82,10.16H13.03c-1.87,0-3.38,1.52-3.38,3.38v14.13c0,1.6,1.12,2.94,2.62,3.29c0.08,0.06,0.17,0.09,0.27,0.09h0.49   h13.79h0.49c0.1,0,0.19-0.04,0.27-0.09c1.5-0.35,2.62-1.69,2.62-3.29V13.55C30.21,11.68,28.69,10.16,26.82,10.16z M13.06,30.08   c0.25-2.75,2.1-5.06,4.74-5.92c0.64,0.33,1.36,0.54,2.13,0.54c0.77,0,1.49-0.21,2.13-0.54c2.64,0.86,4.49,3.17,4.74,5.92H13.06z    M19.92,23.71c-0.68,0-1.3-0.2-1.85-0.52c0,0-0.01-0.01-0.01-0.01c-1.08-0.64-1.81-1.8-1.81-3.14c0-2.02,1.65-3.67,3.67-3.67   s3.67,1.65,3.67,3.67S21.95,23.71,19.92,23.71z M29.22,27.67c0,1-0.62,1.86-1.49,2.22c-0.29-2.85-2.09-5.29-4.71-6.41   c0.94-0.85,1.55-2.07,1.55-3.44c0-2.57-2.09-4.65-4.65-4.65s-4.65,2.09-4.65,4.65c0,1.37,0.61,2.59,1.55,3.44   c-2.62,1.12-4.41,3.56-4.7,6.41c-0.87-0.36-1.49-1.22-1.49-2.22V13.55c0-1.32,1.08-2.4,2.4-2.4h13.79c1.32,0,2.4,1.08,2.4,2.4   V27.67z"/><path d="M37.47,18.27h16.16c0.96,0,1.74-0.78,1.74-1.74v-3.43c0-0.96-0.78-1.74-1.74-1.74H37.47c-0.96,0-1.74,0.78-1.74,1.74v3.43   C35.72,17.49,36.51,18.27,37.47,18.27z M36.71,13.09c0-0.42,0.34-0.76,0.76-0.76h16.16c0.42,0,0.76,0.34,0.76,0.76v3.43   c0,0.42-0.34,0.76-0.76,0.76H37.47c-0.42,0-0.76-0.34-0.76-0.76V13.09z"/><path d="M56.64,21.37H43.61c-0.27,0-0.49,0.22-0.49,0.49s0.22,0.49,0.49,0.49h13.04c0.27,0,0.49-0.22,0.49-0.49   S56.92,21.37,56.64,21.37z"/><path d="M34.45,22.35h4.92c0.27,0,0.49-0.22,0.49-0.49s-0.22-0.49-0.49-0.49h-4.92c-0.27,0-0.49,0.22-0.49,0.49   S34.18,22.35,34.45,22.35z"/><path d="M56.64,26.03H34.45c-0.27,0-0.49,0.22-0.49,0.49c0,0.27,0.22,0.49,0.49,0.49h22.19c0.27,0,0.49-0.22,0.49-0.49   C57.14,26.25,56.92,26.03,56.64,26.03z"/><path d="M56.64,30.69H34.45c-0.27,0-0.49,0.22-0.49,0.49c0,0.27,0.22,0.49,0.49,0.49h22.19c0.27,0,0.49-0.22,0.49-0.49   C57.14,30.91,56.92,30.69,56.64,30.69z"/><path d="M56.64,35.35h-5.62c-0.27,0-0.49,0.22-0.49,0.49c0,0.27,0.22,0.49,0.49,0.49h5.62c0.27,0,0.49-0.22,0.49-0.49   C57.14,35.57,56.92,35.35,56.64,35.35z"/><path d="M46.36,35.35H34.45c-0.27,0-0.49,0.22-0.49,0.49c0,0.27,0.22,0.49,0.49,0.49h11.91c0.27,0,0.49-0.22,0.49-0.49   C46.85,35.57,46.63,35.35,46.36,35.35z"/><path d="M13.71,33.81c-1.33,0-2.4,1.08-2.4,2.41c0,1.33,1.08,2.4,2.4,2.4c1.33,0,2.41-1.08,2.41-2.4   C16.12,34.89,15.04,33.81,13.71,33.81z M13.71,37.64c-0.78,0-1.42-0.64-1.42-1.42c0-0.79,0.64-1.43,1.42-1.43   c0.79,0,1.43,0.64,1.43,1.43C15.14,37.01,14.5,37.64,13.71,37.64z"/><path d="M19.92,33.81c-1.33,0-2.4,1.08-2.4,2.41c0,1.33,1.08,2.4,2.4,2.4c1.33,0,2.41-1.08,2.41-2.4   C22.34,34.89,21.25,33.81,19.92,33.81z M19.92,37.64c-0.78,0-1.42-0.64-1.42-1.42c0-0.79,0.64-1.43,1.42-1.43   c0.79,0,1.43,0.64,1.43,1.43C21.35,37.01,20.71,37.64,19.92,37.64z"/><path d="M26.14,33.81c-1.33,0-2.4,1.08-2.4,2.41c0,1.33,1.08,2.4,2.4,2.4c1.33,0,2.41-1.08,2.41-2.4   C28.55,34.89,27.47,33.81,26.14,33.81z M26.14,37.64c-0.78,0-1.42-0.64-1.42-1.42c0-0.79,0.64-1.43,1.42-1.43   c0.79,0,1.43,0.64,1.43,1.43C27.57,37.01,26.93,37.64,26.14,37.64z"/></g></svg>