<?xml version="1.0" ?><svg id="Layer_1" style="enable-background:new 0 0 66 66;" version="1.1" viewBox="0 0 66 66" xml:space="preserve" xmlns="http://www.w3.org/2000/svg" xmlns:xlink="http://www.w3.org/1999/xlink"><g><path d="M17.68,21.98h12.57c0.27,0,0.49-0.22,0.49-0.49c0-0.27-0.22-0.49-0.49-0.49H17.68c-0.27,0-0.49,0.22-0.49,0.49   C17.19,21.76,17.41,21.98,17.68,21.98z"/><path d="M46.68,42.98c0-0.27-0.22-0.49-0.49-0.49H33.27c-0.27,0-0.49,0.22-0.49,0.49c0,0.27,0.22,0.49,0.49,0.49h12.92   C46.46,43.47,46.68,43.25,46.68,42.98z"/><path d="M17.68,25.89h34.34c0.27,0,0.49-0.22,0.49-0.49c0-0.27-0.22-0.49-0.49-0.49H17.68c-0.27,0-0.49,0.22-0.49,0.49   C17.19,25.67,17.41,25.89,17.68,25.89z"/><path d="M17.68,30.28h34.34c0.27,0,0.49-0.22,0.49-0.49c0-0.27-0.22-0.49-0.49-0.49H17.68c-0.27,0-0.49,0.22-0.49,0.49   C17.19,30.06,17.41,30.28,17.68,30.28z"/><path d="M23.78,16.93h22.15c1.14,0,2.07-0.93,2.07-2.07V9.09c0-1.14-0.93-2.07-2.07-2.07H23.78c-1.14,0-2.07,0.93-2.07,2.07v5.77   C21.7,16,22.63,16.93,23.78,16.93z M22.68,9.09c0-0.6,0.49-1.09,1.09-1.09h22.15c0.6,0,1.09,0.49,1.09,1.09v5.77   c0,0.6-0.49,1.09-1.09,1.09H23.78c-0.6,0-1.09-0.49-1.09-1.09V9.09z"/><path d="M63.84,27.81l-0.48-0.21c0.67-1.89-0.21-4.01-2.08-4.82c-0.71-0.31-1.46-0.38-2.17-0.26V6.26c0-2.83-2.3-5.13-5.13-5.13   H15.73c-2.83,0-5.13,2.3-5.13,5.13v29.66c-1.62,0.88-2.8,2.47-3.13,4.33c-0.24,1.35-0.05,2.69,0.55,3.89   c1.59,3.17,2.43,6.08,2.56,8.89H2.91c-1.11,0-2,0.9-2,2v4.37c0,1.11,0.9,2,2,2h0.2l1.02,2.21c0.35,0.76,1.12,1.25,1.96,1.25   l47.88,0c2.83,0,5.13-2.3,5.13-5.13V37.39l3.21-7.32c0.01-0.01,0.02-0.02,0.03-0.04c0.01-0.02,0.01-0.04,0.01-0.07l0.63-1.45   l0.45,0.2c0.56,0.24,0.82,0.9,0.58,1.45l-3.94,8.88c-0.11,0.25,0,0.54,0.25,0.65c0.06,0.03,0.13,0.04,0.2,0.04   c0.19,0,0.37-0.11,0.45-0.29l3.94-8.88C65.38,29.5,64.89,28.27,63.84,27.81z M60.89,23.69c1.45,0.63,2.12,2.33,1.49,3.78   l-0.75,1.72l-5.27-2.29l0.75-1.72c0.33-0.77,0.97-1.31,1.7-1.57c0,0,0,0,0,0c0.3-0.1,0.62-0.16,0.94-0.16   C60.13,23.45,60.52,23.53,60.89,23.69z M58.17,37.09C58.17,37.09,58.17,37.09,58.17,37.09l-3.2,7.31   c-0.12,0.28-0.45,0.41-0.73,0.29l-4.25-1.84c-0.28-0.12-0.41-0.45-0.29-0.73l6.27-14.31l5.27,2.29L58.17,37.09z M47.56,54.29   C47.56,54.29,47.56,54.28,47.56,54.29C47.56,54.28,47.56,54.28,47.56,54.29c-0.06-0.02-0.19-0.1-0.21-0.28l-0.3-3.02   c-0.04-0.46,0.03-0.92,0.21-1.34l2.51-5.82l3.87,1.68l-2.51,5.82c-0.18,0.42-0.47,0.79-0.83,1.07l-2.4,1.85   C47.76,54.35,47.61,54.31,47.56,54.29z M11.57,6.26c0-2.29,1.86-4.15,4.15-4.15h38.25c2.29,0,4.15,1.86,4.15,4.15v16.58   c-0.83,0.38-1.53,1.05-1.92,1.95l-3.94,8.99c-0.07-0.05-0.16-0.08-0.25-0.08H17.68c-0.27,0-0.49,0.22-0.49,0.49   c0,0.27,0.22,0.49,0.49,0.49h34.19l-1.54,3.51c-0.08-0.06-0.17-0.1-0.28-0.1H18.82c-0.35-0.56-0.8-1.08-1.32-1.51   c-1.43-1.18-3.31-1.65-5.16-1.29c-0.26,0.05-0.51,0.13-0.76,0.21V6.26z M8.89,43.7c-0.51-1.01-0.67-2.14-0.47-3.28   c0.37-2.09,2.02-3.77,4.1-4.17c1.56-0.3,3.14,0.09,4.35,1.09c1.21,1,1.9,2.47,1.9,4.03c0,0.9-0.23,1.79-0.67,2.57   c-1.49,2.63-2.36,5.76-2.54,9.09h-4C11.43,50.07,10.56,47.01,8.89,43.7z M1.89,59.41v-4.37c0-0.56,0.46-1.02,1.02-1.02h21.29   c0.56,0,1.02,0.46,1.02,1.02v4.37c0,0.56-0.46,1.02-1.02,1.02H23.7H3.42H2.91C2.35,60.43,1.89,59.97,1.89,59.41z M5.02,63.21   l-0.83-1.79h18.74l-0.83,1.79c-0.19,0.42-0.61,0.68-1.07,0.68H6.09C5.63,63.89,5.21,63.62,5.02,63.21z M58.13,59.74   c0,2.29-1.86,4.15-4.15,4.15H22.81c0.06-0.09,0.13-0.17,0.18-0.27c0,0,0,0,0,0l1.02-2.2h0.2c1.11,0,2-0.9,2-2v-4.37   c0-1.11-0.9-2-2-2h-7.65c0.17-3.16,0.99-6.13,2.4-8.61c0.17-0.3,0.31-0.62,0.42-0.95h5.89c0.27,0,0.49-0.22,0.49-0.49   c0-0.27-0.22-0.49-0.49-0.49h-5.63c0.07-0.37,0.11-0.74,0.11-1.12c0-0.8-0.16-1.57-0.45-2.3h30.64l-1.16,2.64   c-0.22,0.52-0.13,1.09,0.18,1.52l-2.6,6.02c-0.25,0.57-0.35,1.21-0.29,1.83l0.3,3.02c0.03,0.31,0.17,0.58,0.38,0.8l-0.33,0.75   c-0.11,0.25,0.01,0.54,0.26,0.64c0.06,0.03,0.13,0.04,0.19,0.04c0.19,0,0.37-0.11,0.45-0.3l0.32-0.75c0.01,0,0.03,0,0.04,0   c0.28,0,0.57-0.09,0.8-0.28l2.4-1.85c0.5-0.38,0.89-0.88,1.14-1.46l2.61-6.03c0.52-0.07,1-0.38,1.22-0.9l2.26-5.16V59.74z"/><path d="M47.89,58.06c-0.19,0.02-0.34,0.14-0.41,0.3c-0.06-0.05-0.13-0.13-0.2-0.21c-0.05-0.06-0.1-0.12-0.16-0.18   c-0.38-0.4-0.89-0.52-1.28-0.32c-0.13,0.07-0.22,0.15-0.29,0.24c-0.16-0.34-0.39-0.63-0.7-0.86c-0.18-0.13-0.42-0.13-0.59,0.01   c-0.28,0.22-0.46,0.56-0.48,0.94c-0.02,0.38,0.11,0.74,0.36,0.99c0.1,0.1,0.23,0.19,0.36,0.25c-1.23,0.65-2.88,0.29-3.89-0.53   c-1.12-0.91-1.89-2.44-2.15-4.32c-0.15-1.06-0.02-1.8,0.39-2.25c0.49-0.55,1.48-0.62,2.21-0.17c0.67,0.42,1.16,1.23,1.34,2.23   c0.14,0.8,0.09,1.63,0.02,2.45c-0.44-0.11-0.84-0.4-1.07-0.79c-0.3-0.52-0.29-1.21,0.03-1.72c0.14-0.23,0.07-0.53-0.16-0.67   c-0.23-0.14-0.53-0.07-0.67,0.16c-0.51,0.82-0.53,1.89-0.05,2.72c0.48,0.83,1.41,1.35,2.37,1.33c0.25-0.01,0.45-0.2,0.47-0.44   c0.11-1.04,0.22-2.13,0.02-3.21c-0.23-1.27-0.88-2.32-1.79-2.89c-1.13-0.7-2.65-0.55-3.46,0.34c-0.62,0.68-0.83,1.68-0.63,3.05   c0.3,2.13,1.19,3.88,2.51,4.94c0.89,0.72,1.99,1.09,3.05,1.09c0.91,0,1.78-0.27,2.47-0.81c0.08-0.06,0.14-0.15,0.17-0.25   c0.03-0.11,0.06-0.22,0.07-0.34c0.13-0.08,0.24-0.17,0.33-0.29c0.05-0.07,0.1-0.14,0.14-0.21c0.02-0.04,0.06-0.09,0.04-0.11   c0.03,0.01,0.09,0.05,0.16,0.11c0.04,0.04,0.08,0.09,0.12,0.14c0.15,0.17,0.33,0.39,0.62,0.51c0.3,0.13,0.68,0.09,0.95-0.11   c0.23-0.17,0.35-0.42,0.32-0.69C48.4,58.23,48.16,58.02,47.89,58.06z"/></g></svg>