<?xml version="1.0" ?><svg id="Layer_1" style="enable-background:new 0 0 66 66;" version="1.1" viewBox="0 0 66 66" xml:space="preserve" xmlns="http://www.w3.org/2000/svg" xmlns:xlink="http://www.w3.org/1999/xlink"><g><path d="M20.25,22.48c-0.91,0-1.65,0.74-1.65,1.65c0,0.92,0.74,1.66,1.65,1.66c0.91,0,1.66-0.74,1.66-1.66   C21.91,23.22,21.16,22.48,20.25,22.48z"/><path d="M31.22,22.48c-0.91,0-1.65,0.74-1.65,1.65c0,0.92,0.74,1.66,1.65,1.66c0.91,0,1.66-0.74,1.66-1.66   C32.87,23.22,32.13,22.48,31.22,22.48z"/><path d="M29.46,21.8h3.84c0.27,0,0.49-0.22,0.49-0.49c0-0.27-0.22-0.49-0.49-0.49h-3.84c-0.27,0-0.49,0.22-0.49,0.49   C28.97,21.58,29.19,21.8,29.46,21.8z"/><path d="M22.67,21.31c0-0.27-0.22-0.49-0.49-0.49h-3.84c-0.27,0-0.49,0.22-0.49,0.49c0,0.27,0.22,0.49,0.49,0.49h3.84   C22.45,21.8,22.67,21.58,22.67,21.31z"/><path d="M28.41,31.86h-5.36c-0.53,0-0.83,0.64-0.48,1.03c0.77,0.87,1.89,1.42,3.15,1.42c1.26,0,2.39-0.55,3.16-1.42   C29.24,32.5,28.95,31.86,28.41,31.86z"/><path d="M25.74,29.52c1.03,0,1.88-0.84,1.88-1.88v-0.48c0-0.27-0.22-0.49-0.49-0.49c-0.27,0-0.49,0.22-0.49,0.49v0.48   c0,0.49-0.4,0.89-0.89,0.89c-0.49,0-0.89-0.4-0.89-0.89v-0.48c0-0.27-0.22-0.49-0.49-0.49c-0.27,0-0.49,0.22-0.49,0.49v0.48   C23.86,28.68,24.7,29.52,25.74,29.52z"/><path d="M62.65,32.83c-0.43-0.4-1-0.6-1.61-0.57c0,0,0,0,0,0c-5.01,0.32-7.64-0.95-8.96-2.07c-0.79-0.67-1.94-0.67-2.73,0   c-1.32,1.12-3.94,2.4-8.96,2.07c-0.61-0.04-1.18,0.16-1.61,0.57c-0.42,0.4-0.66,0.95-0.66,1.54v6.23c0,0.29,0.03,0.57,0.04,0.86   c-1.4-0.48-2.86-0.74-4.36-0.74h-0.77c-0.15-0.31-0.4-0.56-0.71-0.72c-0.11-0.06-0.23-0.1-0.35-0.13v-1.95   c3.15-1.91,5.37-5.2,5.78-9.03c2.3-0.21,4.12-2.07,4.23-4.39c0.05-0.08,0.09-0.17,0.09-0.27v-6.65c0-9.02-7.34-16.35-16.35-16.35   S9.39,8.56,9.39,17.58v6.65c0,0.1,0.04,0.19,0.09,0.27c0.12,2.33,1.93,4.19,4.23,4.39c0.42,3.83,2.64,7.12,5.78,9.03v1.96   c-0.11,0.03-0.23,0.07-0.33,0.13c-0.31,0.16-0.56,0.41-0.71,0.72h-0.78c-7.38,0-13.38,6-13.38,13.38v7.73   c0,0.76,0.3,1.44,0.77,1.97H3.18c-0.27,0-0.49,0.22-0.49,0.49s0.22,0.49,0.49,0.49h45.65c0.27,0,0.49-0.22,0.49-0.49   s-0.22-0.49-0.49-0.49h-2.41c0.47-0.52,0.77-1.21,0.77-1.97v-4.64c0.86,0.54,1.75,1.02,2.69,1.42c0.27,0.12,0.56,0.17,0.85,0.17   c0.29,0,0.58-0.06,0.84-0.17c2.07-0.89,3.95-2.11,5.6-3.62c3.91-3.57,6.15-8.82,6.15-14.39v-6.23   C63.31,33.77,63.08,33.23,62.65,32.83z M32.21,41.31l0.96,4.39c0.05,0.23-0.03,0.46-0.22,0.6c-0.19,0.14-0.43,0.16-0.64,0.04   l-2.53-1.43c-0.18-0.1-0.42-0.08-0.58,0.07c-0.16,0.15-0.2,0.38-0.1,0.57l4.85,9.83c0.1,0.19,0.08,0.42-0.04,0.6   c-0.12,0.18-0.33,0.27-0.54,0.25l-3.21-0.34c-0.21-0.02-0.4-0.16-0.48-0.36l-3.45-8.22v-4.2l5.1-2.24   c0.18-0.08,0.38-0.07,0.55,0.02C32.05,40.96,32.17,41.12,32.21,41.31z M37.84,27.92c0-0.12,0.01-0.23,0.01-0.35v-6.96   c1.8,0.25,3.2,1.79,3.2,3.66C41.04,26.12,39.66,27.67,37.84,27.92z M25.74,2.21c8.47,0,15.37,6.89,15.37,15.37v3.94   c-0.76-1.03-1.93-1.73-3.27-1.87v-2.21c0-2.27-1.85-4.11-4.11-4.11H17.75c-2.27,0-4.11,1.85-4.11,4.11v2.21   c-1.34,0.14-2.51,0.84-3.27,1.87v-3.93C10.37,9.1,17.26,2.21,25.74,2.21z M10.43,24.26c0-1.87,1.4-3.42,3.2-3.66v4.89h0v1.37h0   v0.71c0,0.12,0,0.23,0.01,0.35C11.83,27.68,10.43,26.13,10.43,24.26z M14.62,27.57v-0.71h0.09l-0.06-0.54   c-0.03-0.26-0.03-0.52-0.03-0.77v-8.11c0-1.73,1.41-3.13,3.13-3.13h15.98c1.73,0,3.13,1.41,3.13,3.13v8.06   c0,0.28-0.01,0.56-0.03,0.84l-0.01,0.52h0.03v0.71c0,6.13-4.99,11.12-11.12,11.12S14.62,33.7,14.62,27.57z M25.74,39.67   c1.89,0,3.67-0.45,5.26-1.22v1.49c-0.02,0.01-0.04,0.01-0.06,0.02l-5.2,2.28l-5.2-2.28c-0.02-0.01-0.05-0.01-0.07-0.02v-1.49   C22.07,39.23,23.85,39.67,25.74,39.67z M19.6,40.88c0.17-0.09,0.37-0.1,0.55-0.02l5.1,2.24v4.2l-3.45,8.22   c-0.08,0.2-0.27,0.33-0.48,0.36l-3.22,0.34c-0.22,0.02-0.42-0.07-0.54-0.25c-0.12-0.18-0.14-0.4-0.04-0.59l4.86-9.83   c0.1-0.19,0.05-0.43-0.1-0.57c-0.16-0.15-0.39-0.18-0.58-0.07l-2.53,1.43c-0.21,0.12-0.44,0.1-0.64-0.04   c-0.19-0.14-0.28-0.36-0.22-0.6l0.96-4.39C19.31,41.12,19.43,40.96,19.6,40.88z M46.21,61.83c0,1.08-0.88,1.96-1.96,1.96h-5.79   v-4.56c0-0.27-0.22-0.49-0.49-0.49s-0.49,0.22-0.49,0.49v4.56H14.01v-4.56c0-0.27-0.22-0.49-0.49-0.49s-0.49,0.22-0.49,0.49v4.56   h-5.8c-1.08,0-1.96-0.88-1.96-1.96V54.1c0-6.84,5.56-12.4,12.4-12.4h0.51l-0.83,3.78c-0.13,0.61,0.1,1.22,0.6,1.6   c0.5,0.37,1.16,0.41,1.7,0.1l1.14-0.64l-4.15,8.4c-0.26,0.52-0.21,1.11,0.12,1.59c0.33,0.48,0.87,0.72,1.45,0.66l3.22-0.34   c0.57-0.06,1.06-0.42,1.28-0.95l3.04-7.24l3.04,7.24c0.22,0.53,0.71,0.89,1.28,0.95l3.21,0.34c0,0,0,0,0,0   c0.06,0.01,0.11,0.01,0.17,0.01c0.51,0,0.98-0.24,1.28-0.67c0.33-0.48,0.38-1.07,0.12-1.59l-4.15-8.4l1.14,0.64   c0.55,0.31,1.2,0.27,1.7-0.1c0.5-0.37,0.73-0.98,0.6-1.6l-0.83-3.78h0.5c1.53,0,3.01,0.28,4.42,0.82c0.45,4.85,2.6,9.32,6.05,12.47   c0.61,0.56,1.26,1.06,1.93,1.54V61.83z M62.33,40.6c0,5.3-2.12,10.28-5.83,13.66c-1.57,1.43-3.36,2.59-5.33,3.44   c-0.29,0.12-0.63,0.12-0.91,0c-1.97-0.85-3.76-2.01-5.33-3.44c-3.7-3.38-5.83-8.36-5.83-13.66v-6.23c0-0.32,0.12-0.61,0.35-0.82   c0.21-0.2,0.49-0.31,0.8-0.31c0.03,0,0.05,0,0.08,0c5.33,0.34,8.2-1.06,9.66-2.3c0.42-0.36,1.04-0.36,1.46,0   c1.46,1.24,4.32,2.65,9.66,2.3c0.35-0.03,0.65,0.09,0.88,0.3c0.22,0.21,0.35,0.5,0.35,0.82V40.6z"/><path d="M50.71,36.1c-3.9,0-7.07,3.18-7.07,7.08c0,3.9,3.17,7.07,7.07,7.07c3.9,0,7.08-3.17,7.08-7.07   C57.79,39.27,54.62,36.1,50.71,36.1z M50.71,49.27c-3.36,0-6.09-2.73-6.09-6.09c0-3.36,2.73-6.1,6.09-6.1c3.36,0,6.1,2.74,6.1,6.1   C56.81,46.53,54.08,49.27,50.71,49.27z"/><path d="M53.73,40.65c-0.41-0.11-0.85-0.06-1.22,0.15l-2.09,1.19l-0.2-0.31c-0.23-0.36-0.59-0.62-1.01-0.71   c-0.42-0.09-0.85-0.01-1.21,0.22c-0.75,0.48-0.97,1.48-0.49,2.22l1.02,1.6c0.3,0.47,0.81,0.75,1.36,0.75   c0.28,0,0.55-0.07,0.79-0.21l3.42-1.94c0.37-0.21,0.64-0.56,0.76-0.97c0.11-0.41,0.06-0.85-0.15-1.22   C54.49,41.03,54.14,40.76,53.73,40.65z M53.91,42.37c-0.04,0.16-0.15,0.3-0.3,0.38l-3.42,1.94c-0.29,0.16-0.67,0.07-0.84-0.21   l-1.02-1.6c-0.19-0.29-0.1-0.68,0.19-0.87c0.1-0.07,0.22-0.1,0.33-0.1c0.05,0,0.09,0,0.14,0.02c0.17,0.04,0.31,0.13,0.4,0.28   l0.45,0.7c0.14,0.22,0.43,0.29,0.66,0.16l2.49-1.41c0.15-0.08,0.32-0.1,0.48-0.06c0.16,0.04,0.3,0.15,0.38,0.3   C53.93,42.04,53.95,42.21,53.91,42.37z"/></g></svg>