<?xml version="1.0" ?><svg id="Layer_1" style="enable-background:new 0 0 66 66;" version="1.1" viewBox="0 0 66 66" xml:space="preserve" xmlns="http://www.w3.org/2000/svg" xmlns:xlink="http://www.w3.org/1999/xlink"><path d="M43.99,32.99c0,1.02,0.79,1.85,1.78,1.94c0.44,4.28,4.03,7.57,8.38,7.57c4.34,0,7.94-3.29,8.38-7.56  c1.04-0.05,1.87-0.9,1.87-1.95c0-1.04-0.82-1.89-1.84-1.95l-6.6-17.5c0.83-0.57,1.38-1.52,1.38-2.59c0-1.73-1.41-3.14-3.14-3.14  c-0.99,0-1.86,0.47-2.43,1.18H40.74c-0.14-1.25-1.19-2.22-2.47-2.22c-0.64,0-1.21,0.25-1.65,0.64c-0.32-1.01-1.26-1.75-2.37-1.75  c-0.69,0-1.31,0.28-1.76,0.73c-0.39-0.86-1.26-1.46-2.27-1.46c-1.23,0-2.24,0.89-2.45,2.05c-0.43-0.35-0.97-0.57-1.57-0.57  c-1.38,0-2.5,1.12-2.5,2.5V9h-9.45c-0.58-0.71-1.45-1.18-2.43-1.18c-1.73,0-3.14,1.41-3.14,3.14c0,1.08,0.55,2.04,1.38,2.6  L3.44,31.04c-1.02,0.06-1.84,0.91-1.84,1.95c0,1.02,0.79,1.85,1.78,1.94c0.44,4.28,4.03,7.57,8.38,7.57c4.34,0,7.94-3.29,8.38-7.56  c1.04-0.05,1.87-0.9,1.87-1.95c0-1.04-0.82-1.89-1.84-1.95l-6.6-17.5c0.26-0.18,0.48-0.4,0.67-0.64h9.44  c-0.99,5.63,1.35,10.38,1.62,10.9c0.27,0.54,0.41,1.09,0.41,1.64v0.76h-0.36c-0.87,0-1.58,0.71-1.58,1.58v3.4  c0,0.8,0.59,1.45,1.36,1.56v17.77h-1.76c-1.68,0-3.06,1.37-3.06,3.06v1.82h-2.46c-1.56,0-2.84,1.27-2.84,2.84v1.87H5.13  c-0.27,0-0.48,0.22-0.48,0.48c0,0.27,0.22,0.48,0.48,0.48h55.74c0.27,0,0.48-0.22,0.48-0.48c0-0.27-0.22-0.48-0.48-0.48h-9.88v-1.87  c0-1.56-1.27-2.84-2.84-2.84h-2.46v-1.82c0-1.68-1.37-3.06-3.06-3.06h-2.19V32.75c0.77-0.11,1.36-0.76,1.36-1.56v-3.4  c0-0.87-0.71-1.58-1.58-1.58h-0.51c-0.01-1.04,0.14-3.62,1.79-4.54c0.74-0.41,1.38-0.99,1.9-1.72c0.86-1.19,1.33-2.72,1.33-4.31  v-2.56c0-0.06-0.01-0.11-0.02-0.17h7.04c0.2,0.24,0.42,0.47,0.68,0.64l-6.61,17.49C44.8,31.11,43.99,31.95,43.99,32.99z   M54.15,41.54c-3.81,0-6.97-2.85-7.41-6.59h14.83C61.12,38.69,57.96,41.54,54.15,41.54z M63.43,32.99c0,0.55-0.45,0.99-0.99,0.99  h-0.34H46.21h-0.26c-0.55,0-0.99-0.45-0.99-0.99c0-0.55,0.45-0.99,0.99-0.99h16.49C62.98,32,63.43,32.45,63.43,32.99z M54.19,8.79  c1.2,0,2.17,0.97,2.17,2.17s-0.97,2.17-2.17,2.17c-1.2,0-2.17-0.97-2.17-2.17S53,8.79,54.19,8.79z M38.27,7.74  c0.84,0,1.53,0.69,1.53,1.53v2.19c0,0.01,0.01,0.02,0.01,0.03h-3.07c0-0.01,0.01-0.02,0.01-0.03V9.27  C36.74,8.43,37.42,7.74,38.27,7.74z M34.24,6.64c0.84,0,1.53,0.69,1.53,1.53v1.11v2.19c0,0.01,0.01,0.02,0.01,0.03h-0.43  c-0.18,0-0.35,0.04-0.51,0.09c-0.02,0.01-0.03,0.01-0.05,0.02c-0.15,0.06-0.29,0.14-0.42,0.24c-0.02,0.01-0.03,0.03-0.05,0.04  c-0.12,0.11-0.23,0.23-0.31,0.36c-0.01,0.02-0.02,0.03-0.03,0.05c-0.08,0.15-0.15,0.31-0.18,0.48c0,0,0,0,0,0c0,0,0,0.01,0,0.01  c-0.02,0.09-0.03,0.19-0.03,0.29v0.15c0,0.23,0.03,0.45,0.07,0.66c-0.64-0.18-1.11-0.77-1.11-1.46V8.16  C32.71,7.32,33.4,6.64,34.24,6.64z M28.69,7.42c0-0.84,0.69-1.53,1.53-1.53c0.84,0,1.53,0.69,1.53,1.53v0.74v4.27  c0,0.84-0.69,1.53-1.53,1.53c-0.84,0-1.53-0.69-1.53-1.53V8.9V7.42z M24.66,8.9c0-0.84,0.69-1.53,1.53-1.53  c0.84,0,1.53,0.69,1.53,1.53v3.53c0,0.84-0.69,1.53-1.53,1.53c-0.84,0-1.53-0.69-1.53-1.53V8.9z M11.81,8.79  c1.2,0,2.17,0.97,2.17,2.17s-0.97,2.17-2.17,2.17s-2.17-0.97-2.17-2.17S10.61,8.79,11.81,8.79z M11.77,41.54  c-3.81,0-6.97-2.85-7.41-6.59h14.83C18.74,38.69,15.57,41.54,11.77,41.54z M21.04,32.99c0,0.55-0.45,0.99-0.99,0.99h-0.34H3.82H3.56  c-0.55,0-0.99-0.45-0.99-0.99c0-0.55,0.45-0.99,0.99-0.99h16.49C20.6,32,21.04,32.45,21.04,32.99z M19.13,31.03H4.48l6.46-17.08  c0.28,0.08,0.57,0.14,0.87,0.14c0.31,0,0.6-0.06,0.88-0.14L19.13,31.03z M14.77,9.97h8.92v1.97h-8.92c0.1-0.31,0.17-0.64,0.17-0.99  C14.94,10.61,14.87,10.28,14.77,9.97z M50.02,58.23v1.87H15.99v-1.87c0-1.03,0.84-1.87,1.87-1.87h30.3  C49.18,56.37,50.02,57.21,50.02,58.23z M44.72,53.57v1.82H21.28v-1.82c0-1.15,0.94-2.09,2.09-2.09h19.27  C43.79,51.49,44.72,52.42,44.72,53.57z M26.1,50.52V32.77h13.38v17.74H26.1z M40.83,27.79v3.4c0,0.34-0.27,0.61-0.61,0.61h-0.26  H25.61h-0.26c-0.34,0-0.61-0.27-0.61-0.61v-3.4c0-0.34,0.27-0.61,0.61-0.61h0.83c0,0,0.01,0,0.01,0h13.05c0,0,0.01,0,0.01,0h0.96  C40.56,27.17,40.83,27.45,40.83,27.79z M42.62,19.38c-0.44,0.61-0.98,1.1-1.59,1.44c-2.11,1.17-2.3,4.16-2.29,5.38H26.68v-0.76  c0-0.7-0.17-1.4-0.52-2.08c-0.24-0.46-2.15-4.33-1.69-9.12c0.45,0.42,1.05,0.69,1.71,0.69c0.83,0,1.56-0.41,2.01-1.03  c0.45,0.62,1.18,1.03,2.01,1.03c0.83,0,1.56-0.41,2.01-1.03c0.43,0.59,1.11,0.98,1.89,1.02c0.42,0.95,1.17,1.7,2.11,2.13  c-1.36,1.02-1.97,2.84-1.35,4.51c0.07,0.2,0.26,0.32,0.45,0.32c0.06,0,0.11-0.01,0.17-0.03c0.25-0.09,0.38-0.37,0.29-0.62  c-0.57-1.54,0.22-3.26,1.77-3.82c0.01,0,0.01-0.01,0.01-0.01c0.13,0.01,0.25,0.04,0.38,0.04h2.81c0.27,0,0.48-0.22,0.48-0.48  c0-0.27-0.22-0.48-0.48-0.48h-2.81c-1.78,0-3.23-1.45-3.23-3.23v-0.15c0-0.06,0.02-0.12,0.04-0.18c0.01-0.03,0.02-0.07,0.04-0.1  c0.02-0.03,0.04-0.06,0.06-0.08c0.03-0.03,0.05-0.07,0.08-0.1c0.02-0.02,0.05-0.03,0.07-0.05c0.04-0.02,0.07-0.05,0.12-0.07  c0.05-0.02,0.11-0.03,0.17-0.03c0.02,0,0.03-0.01,0.05-0.01h7.81c0.27,0,0.5,0.19,0.58,0.43c0.02,0.06,0.04,0.12,0.04,0.18v2.56  c0,0,0,0,0,0C43.76,17.04,43.36,18.36,42.62,19.38z M44.25,11.94c-0.08-0.08-0.18-0.15-0.28-0.21c-0.24-0.15-0.52-0.24-0.82-0.24  h-2.39c0-0.01,0.01-0.02,0.01-0.03v-1.5h10.47c-0.1,0.31-0.17,0.64-0.17,0.99c0,0.35,0.07,0.67,0.17,0.99H44.25z M54.19,14.09  c0.31,0,0.6-0.06,0.88-0.14l6.45,17.08H46.87l6.46-17.08C53.6,14.04,53.89,14.09,54.19,14.09z"/></svg>