<?xml version="1.0" ?><svg id="Layer_1" style="enable-background:new 0 0 66 66;" version="1.1" viewBox="0 0 66 66" xml:space="preserve" xmlns="http://www.w3.org/2000/svg" xmlns:xlink="http://www.w3.org/1999/xlink"><g><path d="M12.7,22.45h12.03c0.26,0,0.47-0.21,0.47-0.47c0-0.26-0.21-0.47-0.47-0.47H12.7c-0.26,0-0.47,0.21-0.47,0.47   C12.23,22.24,12.44,22.45,12.7,22.45z"/><path d="M12.7,26.19h32.88c0.26,0,0.47-0.21,0.47-0.47c0-0.26-0.21-0.47-0.47-0.47H12.7c-0.26,0-0.47,0.21-0.47,0.47   C12.23,25.98,12.44,26.19,12.7,26.19z"/><path d="M34.28,29.93c0-0.26-0.21-0.47-0.47-0.47H12.7c-0.26,0-0.47,0.21-0.47,0.47c0,0.26,0.21,0.47,0.47,0.47h21.12   C34.07,30.4,34.28,30.19,34.28,29.93z"/><path d="M18.53,17.61h21.21c1.1,0,1.99-0.89,1.99-1.99V10.1c0-1.1-0.89-1.99-1.99-1.99H18.53c-1.1,0-1.99,0.89-1.99,1.99v5.53   C16.55,16.72,17.44,17.61,18.53,17.61z M17.49,10.1c0-0.58,0.47-1.05,1.05-1.05h21.21c0.58,0,1.05,0.47,1.05,1.05v5.53   c0,0.58-0.47,1.05-1.05,1.05H18.53c-0.58,0-1.05-0.47-1.05-1.05V10.1z"/><path d="M65,39.67c0-1.78-1.45-3.23-3.23-3.23h-4.98v-0.89c0-0.7-0.57-1.27-1.27-1.27h-0.93V31.9c0-1.36-0.95-2.5-2.23-2.79V7.39   c0-2.71-2.2-4.92-4.91-4.92H10.82c-2.71,0-4.92,2.21-4.92,4.92v23.38c-0.37,0.12-0.74,0.28-1.08,0.48   c-1.87,1.08-2.9,3.24-2.57,5.38c0.18,1.16,0.71,2.2,1.54,3c0.8,0.78,1.49,1.55,2.11,2.33v4.84L2.18,48.1   c-0.44,0.15-0.8,0.47-1.01,0.89c-0.21,0.42-0.23,0.9-0.08,1.34l1.21,3.51c0.15,0.44,0.47,0.8,0.89,1.01   c0.24,0.12,0.5,0.18,0.77,0.18c0.19,0,0.39-0.03,0.57-0.1l0.13-0.04l1.24,1.29v2.43c0,2.71,2.21,4.91,4.92,4.91H34.4h22.99   c3.05,0,5.53-2.48,5.53-5.53v-9.13c1.28-1.39,2.08-3.24,2.08-5.28V39.67z M42.25,36.44v-0.89c0-0.7-0.57-1.27-1.27-1.27h-0.57   v-1.76c0-0.27,0.22-0.5,0.5-0.5h9.97c0.27,0,0.5,0.22,0.5,0.5v1.76h-0.57c-0.7,0-1.27,0.57-1.27,1.27v0.89H42.25z M37.67,35.21   h2.27h1.04c0.18,0,0.33,0.15,0.33,0.33v0.89h-5.37v-0.89c0-0.18,0.15-0.33,0.33-0.33H37.67z M55.85,35.54v0.89h-5.37v-0.89   c0-0.18,0.15-0.33,0.33-0.33h1.04h2.28h1.4C55.7,35.21,55.85,35.36,55.85,35.54z M53.65,31.9v2.38h-1.34v-1.76   c0-0.79-0.64-1.44-1.44-1.44h-9.97c-0.79,0-1.44,0.64-1.44,1.44v1.76h-1.33V31.9c0-1.06,0.86-1.92,1.93-1.92h11.67   c0.01,0,0.02,0,0.02,0c0,0,0.01,0,0.01,0c0.01,0,0.09,0.01,0.1,0.01c0,0,0,0,0.01,0C52.87,30.06,53.65,30.89,53.65,31.9z    M3.19,36.49c-0.28-1.76,0.57-3.54,2.11-4.43c0.69-0.4,1.46-0.6,2.23-0.6c0.51,0,1.03,0.09,1.52,0.27   c1.23,0.46,2.19,1.44,2.61,2.68c0.25,0.71,0.3,1.48,0.17,2.22c-0.47,2.51-0.3,5.26,0.47,7.97l-3.11,1.07   c-0.93-2.33-2.48-4.53-4.72-6.72C3.78,38.3,3.34,37.45,3.19,36.49z M6.85,43.28c0.59,0.89,1.06,1.8,1.44,2.72l-1.44,0.5V43.28z    M3.61,54c-0.2-0.1-0.34-0.26-0.41-0.47l-1.21-3.51c-0.07-0.21-0.06-0.43,0.04-0.62c0.1-0.2,0.26-0.34,0.47-0.41l17.09-5.9   c0.09-0.03,0.18-0.04,0.27-0.04c0.12,0,0.24,0.03,0.36,0.08c0.2,0.1,0.34,0.26,0.41,0.47l1.21,3.51c0.07,0.21,0.06,0.43-0.04,0.62   c-0.1,0.2-0.26,0.34-0.47,0.41l-0.41,0.14c0,0,0,0,0,0l-8.14,2.81l-8.54,2.95C4.03,54.11,3.8,54.1,3.61,54z M13.08,51.98l7.44-2.57   L20.36,51c-0.04,0.37-0.29,0.68-0.64,0.8L7.74,55.93C7.4,56.06,7,55.96,6.75,55.69l-1.11-1.15L13.08,51.98z M10.82,62.58   c-2.19,0-3.98-1.78-3.98-3.98v-1.79c0.19,0.06,0.39,0.1,0.59,0.1c0.21,0,0.41-0.03,0.61-0.1l11.98-4.13   c0.69-0.24,1.19-0.86,1.26-1.59l0.21-2.02l0.13-0.04c0.44-0.15,0.8-0.47,1.01-0.89c0.21-0.42,0.23-0.9,0.08-1.34l-1.21-3.51   c-0.15-0.44-0.47-0.8-0.89-1.01c-0.42-0.21-0.9-0.24-1.34-0.08l-6.09,2.1c-0.52-1.86-0.75-3.73-0.67-5.52   c0.05,0.02,0.11,0.04,0.18,0.04h9.73c0.26,0,0.47-0.21,0.47-0.47c0-0.26-0.21-0.47-0.47-0.47H12.7c-0.04,0-0.07,0.01-0.11,0.02   c0.04-0.37,0.09-0.73,0.16-1.09c0.14-0.73,0.11-1.48-0.07-2.2c0.01,0,0.01,0,0.02,0h14.46c0.26,0,0.47-0.21,0.47-0.47   s-0.21-0.47-0.47-0.47H12.7c-0.11,0-0.21,0.04-0.29,0.11c-0.57-1.35-1.65-2.4-3.04-2.92c-0.82-0.3-1.68-0.39-2.52-0.28V7.39   c0-2.19,1.78-3.98,3.98-3.98h36.63c2.19,0,3.98,1.78,3.98,3.98v21.64H40.06c-1.58,0-2.86,1.28-2.86,2.86v2.38h-0.93   c-0.7,0-1.27,0.57-1.27,1.27v0.89h-4.98c-1.78,0-3.23,1.45-3.23,3.23v3.91c0,2.04,0.79,3.89,2.08,5.28v9.13   c0,1.91,0.98,3.6,2.45,4.6H10.82z M57.39,62.58H34.4c-2.53,0-4.6-2.06-4.6-4.6v-8.27c1.32,1.03,2.97,1.65,4.77,1.65h0.24v1.43   c0,0.88,0.72,1.6,1.6,1.6h2.06c0.88,0,1.6-0.72,1.6-1.6v-1.43h11.63v1.43c0,0.88,0.72,1.6,1.6,1.6h2.06c0.88,0,1.6-0.72,1.6-1.6   v-1.43h0.23c1.8,0,3.45-0.62,4.77-1.65v8.27C61.98,60.52,59.92,62.58,57.39,62.58z M39.14,52.8c0,0.36-0.3,0.66-0.66,0.66h-2.06   c-0.36,0-0.66-0.3-0.66-0.66v-4.02c0-0.36,0.3-0.66,0.66-0.66h2.06c0.36,0,0.66,0.3,0.66,0.66V52.8z M56.04,52.8   c0,0.36-0.3,0.66-0.66,0.66h-2.06c-0.36,0-0.66-0.3-0.66-0.66v-4.02c0-0.36,0.3-0.66,0.66-0.66h2.06c0.36,0,0.66,0.3,0.66,0.66   V52.8z M64.06,43.58c0,3.78-3.07,6.85-6.85,6.85h-0.23v-1.65c0-0.88-0.72-1.6-1.6-1.6h-2.06c-0.88,0-1.6,0.72-1.6,1.6v1.65H40.08   v-1.65c0-0.88-0.72-1.6-1.6-1.6h-2.06c-0.88,0-1.6,0.72-1.6,1.6v1.65h-0.24c-3.78,0-6.85-3.07-6.85-6.85v-3.91   c0-1.26,1.03-2.29,2.29-2.29h31.76c1.26,0,2.29,1.03,2.29,2.29V43.58z"/></g></svg>