<?xml version="1.0" ?><svg id="Layer_1" style="enable-background:new 0 0 66 66;" version="1.1" viewBox="0 0 66 66" xml:space="preserve" xmlns="http://www.w3.org/2000/svg" xmlns:xlink="http://www.w3.org/1999/xlink"><g><path d="M10.6,54.28c0.67,0,1.22,0.55,1.22,1.22c0,0.27,0.22,0.48,0.48,0.48h4.37c0.27,0,0.48-0.22,0.48-0.48   c0-0.67,0.55-1.22,1.22-1.22c0.27,0,0.48-0.22,0.48-0.48v-6.62c0-0.27-0.22-0.48-0.48-0.48c-0.67,0-1.22-0.55-1.22-1.22   c0-0.27-0.22-0.48-0.48-0.48H12.3c-0.27,0-0.48,0.22-0.48,0.48c0,0.67-0.55,1.22-1.22,1.22c-0.27,0-0.48,0.22-0.48,0.48v6.62   C10.12,54.07,10.33,54.28,10.6,54.28z M11.09,47.61c0.82-0.19,1.46-0.83,1.65-1.65h3.5c0.19,0.82,0.83,1.46,1.65,1.65v5.76   c-0.82,0.19-1.46,0.83-1.65,1.65h-3.5c-0.19-0.82-0.83-1.46-1.65-1.65V47.61z"/><path d="M22.86,54.28c0.67,0,1.22,0.55,1.22,1.22c0,0.27,0.22,0.48,0.48,0.48h4.37c0.27,0,0.48-0.22,0.48-0.48   c0-0.67,0.55-1.22,1.22-1.22c0.27,0,0.48-0.22,0.48-0.48v-6.62c0-0.27-0.22-0.48-0.48-0.48c-0.67,0-1.22-0.55-1.22-1.22   c0-0.27-0.22-0.48-0.48-0.48h-4.37c-0.27,0-0.48,0.22-0.48,0.48c0,0.67-0.55,1.22-1.22,1.22c-0.27,0-0.48,0.22-0.48,0.48v6.62   C22.38,54.07,22.59,54.28,22.86,54.28z M23.35,47.61c0.82-0.19,1.46-0.83,1.65-1.65h3.5c0.19,0.82,0.83,1.46,1.65,1.65v5.76   c-0.82,0.19-1.46,0.83-1.65,1.65h-3.5c-0.19-0.82-0.83-1.46-1.65-1.65V47.61z"/><path d="M35.12,54.28c0.67,0,1.22,0.55,1.22,1.22c0,0.27,0.22,0.48,0.48,0.48h4.37c0.27,0,0.48-0.22,0.48-0.48   c0-0.67,0.55-1.22,1.22-1.22c0.27,0,0.48-0.22,0.48-0.48v-6.62c0-0.27-0.22-0.48-0.48-0.48c-0.67,0-1.22-0.55-1.22-1.22   c0-0.27-0.22-0.48-0.48-0.48h-4.37c-0.27,0-0.48,0.22-0.48,0.48c0,0.67-0.55,1.22-1.22,1.22c-0.27,0-0.48,0.22-0.48,0.48v6.62   C34.63,54.07,34.85,54.28,35.12,54.28z M35.6,47.61c0.82-0.19,1.46-0.83,1.65-1.65h3.5c0.19,0.82,0.83,1.46,1.65,1.65v5.76   c-0.82,0.19-1.46,0.83-1.65,1.65h-3.5c-0.19-0.82-0.83-1.46-1.65-1.65V47.61z"/><path d="M47.38,54.28c0.67,0,1.22,0.55,1.22,1.22c0,0.27,0.22,0.48,0.48,0.48h4.37c0.27,0,0.48-0.22,0.48-0.48   c0-0.67,0.55-1.22,1.22-1.22c0.27,0,0.48-0.22,0.48-0.48v-6.62c0-0.27-0.22-0.48-0.48-0.48c-0.67,0-1.22-0.55-1.22-1.22   c0-0.27-0.22-0.48-0.48-0.48h-4.37c-0.27,0-0.48,0.22-0.48,0.48c0,0.67-0.55,1.22-1.22,1.22c-0.27,0-0.48,0.22-0.48,0.48v6.62   C46.89,54.07,47.11,54.28,47.38,54.28z M47.86,47.61c0.82-0.19,1.46-0.83,1.65-1.65h3.5c0.19,0.82,0.83,1.46,1.65,1.65v5.76   c-0.82,0.19-1.46,0.83-1.65,1.65h-3.5c-0.19-0.82-0.83-1.46-1.65-1.65V47.61z"/><path d="M65.01,64.03h-0.93c0.2-0.31,0.31-0.68,0.31-1.08v-2.14c0-1.13-0.92-2.05-2.05-2.05h-2.65V42.23h2.65   c1.13,0,2.05-0.92,2.05-2.05v-2.14c0-1.13-0.92-2.05-2.05-2.05h-1.06v-3.22c0-4.14-3.2-7.6-7.22-8.01   c-0.05-0.02-0.1-0.04-0.16-0.05c-0.08-0.01-0.16-0.01-0.24-0.01h-0.45H42.78h-0.45c-0.14,0-0.29,0.01-0.43,0.01   c-0.08,0-0.15,0.03-0.22,0.07c-3.96,0.53-6.97,3.91-6.97,7.98v3.22h-3.67v-3.22c0-4.14-3.2-7.6-7.22-8.01   c-0.05-0.02-0.1-0.04-0.16-0.05c-0.08-0.01-0.16-0.01-0.24-0.01h-0.45H12.54h-0.45c-0.14,0-0.29,0.01-0.43,0.01   c-0.08,0-0.15,0.03-0.22,0.07c-3.96,0.53-6.97,3.91-6.97,7.98v3.22H3.41c-1.13,0-2.05,0.92-2.05,2.05v2.14   c0,1.13,0.92,2.05,2.05,2.05h2.65v16.53H3.41c-1.13,0-2.05,0.92-2.05,2.05v2.14c0,0.4,0.12,0.77,0.31,1.08H0.99   c-0.27,0-0.48,0.22-0.48,0.48S0.72,65,0.99,65h64.03c0.27,0,0.48-0.22,0.48-0.48S65.28,64.03,65.01,64.03z M53.22,25.68   c0.03,0,0.07,0,0.12,0c-0.34,2.7-2.68,4.81-5.45,4.81c-2.81,0-5.11-2.07-5.45-4.81c0.01,0,0.01,0,0.02,0c0.1,0,0.21-0.01,0.32-0.01   H53.22z M35.68,32.77c0-3.46,2.47-6.34,5.8-6.96c0.4,3.22,3.1,5.66,6.41,5.66c3.32,0,6.04-2.46,6.42-5.69   c3.39,0.53,6.01,3.49,6.01,7v3.22H42.47c-0.01,0-0.01,0-0.02,0h-4.5c-0.01,0-0.01,0-0.02,0h-2.25V32.77z M22.98,25.68   c0.04,0,0.07,0,0.12,0c-0.34,2.7-2.68,4.81-5.45,4.81c-2.81,0-5.11-2.07-5.45-4.81c0.01,0,0.01,0,0.02,0   c0.11,0,0.21-0.01,0.32-0.01H22.98z M5.44,32.77c0-3.46,2.47-6.34,5.8-6.96c0.39,3.22,3.1,5.66,6.41,5.66   c3.32,0,6.04-2.46,6.42-5.69c3.39,0.53,6.01,3.49,6.01,7v3.22H5.44V32.77z M2.33,40.18v-2.14c0-0.6,0.48-1.08,1.08-1.08h58.93   c0.6,0,1.08,0.48,1.08,1.08v2.14c0,0.6-0.48,1.08-1.08,1.08H3.41C2.82,41.26,2.33,40.78,2.33,40.18z M58.72,42.23v16.52H7.03V42.23   H58.72z M3.41,64.03c-0.6,0-1.08-0.48-1.08-1.08v-2.14c0-0.6,0.48-1.08,1.08-1.08h58.93c0.6,0,1.08,0.48,1.08,1.08v2.14   c0,0.6-0.48,1.08-1.08,1.08H3.41z"/><path d="M44.59,13.54c-0.51,0-0.92,0.42-0.92,0.92c0,0.51,0.42,0.92,0.92,0.92c0.51,0,0.92-0.41,0.92-0.92   C45.52,13.95,45.11,13.54,44.59,13.54z"/><path d="M51.19,13.54c-0.51,0-0.92,0.42-0.92,0.92c0,0.51,0.42,0.92,0.92,0.92c0.51,0,0.92-0.41,0.92-0.92   C52.11,13.95,51.7,13.54,51.19,13.54z"/><path d="M49.26,19.15c-0.76,0.75-1.98,0.75-2.74,0c-0.19-0.19-0.5-0.19-0.69,0c-0.19,0.19-0.19,0.5,0,0.69   c0.57,0.56,1.31,0.84,2.05,0.84c0.74,0,1.49-0.28,2.05-0.84c0.19-0.19,0.19-0.5,0-0.69C49.76,18.97,49.46,18.97,49.26,19.15z"/><path d="M47.89,17.78c0.75,0,1.36-0.61,1.36-1.36c0-0.27-0.22-0.48-0.48-0.48s-0.48,0.22-0.48,0.48c0,0.21-0.17,0.39-0.39,0.39   c-0.21,0-0.39-0.17-0.39-0.39c0-0.27-0.22-0.48-0.48-0.48c-0.27,0-0.48,0.22-0.48,0.48C46.53,17.17,47.14,17.78,47.89,17.78z"/><path d="M40.37,17.69c0.32,1.4,1.02,2.69,2.06,3.73c1.46,1.46,3.4,2.27,5.46,2.27c3.66,0,6.73-2.56,7.52-5.99   c1.54-0.11,2.76-1.38,2.76-2.95c0-0.8-0.32-1.53-0.84-2.06c0.14-0.66,0.22-1.34,0.22-2.02c0-5.33-4.34-9.67-9.67-9.67   c-5.33,0-9.67,4.34-9.67,9.67c0,0.68,0.08,1.36,0.22,2.02c-0.52,0.54-0.84,1.26-0.84,2.06C37.61,16.29,38.79,17.54,40.37,17.69z    M40.16,16.71c-0.9-0.19-1.58-1-1.58-1.96c0-0.96,0.68-1.77,1.58-1.96V16.71z M47.89,22.71c-1.81,0-3.5-0.7-4.78-1.98   c-1.28-1.28-1.98-2.97-1.98-4.78v-4.14c0.72,0.34,1.5,0.51,2.31,0.51c1.62,0,3.11-0.71,4.14-1.92c1.01,1.8,2.91,2.93,5.02,2.93   c0.7,0,1.39-0.13,2.04-0.38v3C54.65,19.68,51.62,22.71,47.89,22.71z M55.62,16.7v-0.75v-3.16c0.9,0.19,1.58,1,1.58,1.96   C57.2,15.7,56.54,16.49,55.62,16.7z M47.89,1.97c4.8,0,8.7,3.9,8.7,8.7c0,0.47-0.05,0.94-0.13,1.4c-0.33-0.15-0.69-0.25-1.06-0.27   c-0.01,0-0.01-0.01-0.02-0.02c-0.15-0.09-0.33-0.09-0.48-0.01c-0.7,0.38-1.49,0.59-2.29,0.59c-2,0-3.76-1.21-4.48-3.08   c-0.07-0.17-0.22-0.29-0.41-0.31c-0.18-0.01-0.36,0.07-0.46,0.23c-0.83,1.35-2.25,2.15-3.82,2.15c-0.9,0-1.77-0.27-2.52-0.78   c-0.15-0.1-0.34-0.11-0.5-0.03c-0.16,0.08-0.26,0.25-0.26,0.43v0.84c-0.3,0.04-0.58,0.12-0.84,0.25c-0.07-0.46-0.13-0.93-0.13-1.4   C39.19,5.87,43.09,1.97,47.89,1.97z"/><path d="M14.35,13.54c-0.51,0-0.92,0.42-0.92,0.92c0,0.51,0.42,0.92,0.92,0.92c0.51,0,0.92-0.41,0.92-0.92   C15.27,13.95,14.87,13.54,14.35,13.54z"/><path d="M20.95,13.54c-0.51,0-0.92,0.42-0.92,0.92c0,0.51,0.42,0.92,0.92,0.92c0.51,0,0.92-0.41,0.92-0.92   C21.87,13.95,21.46,13.54,20.95,13.54z"/><path d="M19.02,19.15c-0.76,0.75-1.98,0.75-2.74,0c-0.19-0.19-0.5-0.19-0.69,0c-0.19,0.19-0.19,0.5,0,0.69   c0.57,0.56,1.31,0.84,2.05,0.84c0.74,0,1.49-0.28,2.05-0.84c0.19-0.19,0.19-0.5,0-0.69C19.52,18.97,19.21,18.97,19.02,19.15z"/><path d="M17.65,17.78c0.75,0,1.36-0.61,1.36-1.36c0-0.27-0.22-0.48-0.48-0.48c-0.27,0-0.48,0.22-0.48,0.48   c0,0.21-0.17,0.39-0.39,0.39s-0.39-0.17-0.39-0.39c0-0.27-0.22-0.48-0.48-0.48c-0.27,0-0.48,0.22-0.48,0.48   C16.29,17.17,16.9,17.78,17.65,17.78z"/><path d="M10.12,17.69c0.32,1.4,1.02,2.69,2.06,3.73c1.46,1.46,3.4,2.27,5.46,2.27c3.66,0,6.73-2.56,7.52-5.99   c1.54-0.11,2.76-1.38,2.76-2.95c0-0.8-0.32-1.53-0.84-2.06c0.14-0.66,0.22-1.34,0.22-2.02c0-5.33-4.34-9.67-9.67-9.67   c-5.33,0-9.67,4.34-9.67,9.67c0,0.68,0.08,1.36,0.22,2.02c-0.52,0.54-0.84,1.26-0.84,2.06C7.36,16.29,8.55,17.54,10.12,17.69z    M9.92,16.71c-0.9-0.19-1.58-1-1.58-1.96c0-0.96,0.68-1.77,1.58-1.96V16.71z M17.65,22.71c-1.81,0-3.5-0.7-4.78-1.98   c-1.28-1.28-1.98-2.97-1.98-4.78v-4.14c0.72,0.34,1.5,0.51,2.31,0.51c1.62,0,3.11-0.71,4.14-1.92c1.01,1.8,2.91,2.93,5.02,2.93   c0.7,0,1.39-0.13,2.04-0.38v3C24.41,19.68,21.37,22.71,17.65,22.71z M25.38,16.7v-0.75v-3.16c0.9,0.19,1.58,1,1.58,1.96   C26.96,15.7,26.3,16.49,25.38,16.7z M17.64,1.97c4.8,0,8.7,3.9,8.7,8.7c0,0.47-0.05,0.94-0.13,1.4c-0.33-0.15-0.69-0.25-1.06-0.27   c-0.01,0-0.01-0.01-0.02-0.02c-0.15-0.09-0.33-0.09-0.48-0.01c-0.7,0.38-1.49,0.59-2.29,0.59c-2,0-3.76-1.21-4.48-3.08   c-0.07-0.17-0.22-0.29-0.41-0.31c-0.18-0.01-0.36,0.07-0.46,0.23c-0.83,1.35-2.25,2.15-3.82,2.15c-0.9,0-1.77-0.27-2.52-0.78   c-0.15-0.1-0.34-0.11-0.5-0.03c-0.16,0.08-0.26,0.25-0.26,0.43v0.84c-0.3,0.04-0.58,0.12-0.85,0.25C9,11.6,8.95,11.14,8.95,10.67   C8.95,5.87,12.85,1.97,17.64,1.97z"/></g></svg>