<?xml version="1.0" ?><svg id="Layer_1" style="enable-background:new 0 0 66 66;" version="1.1" viewBox="0 0 66 66" xml:space="preserve" xmlns="http://www.w3.org/2000/svg" xmlns:xlink="http://www.w3.org/1999/xlink"><g><path d="M19.65,42.37h-6.89c-0.99,0-1.8,0.81-1.8,1.8v8.48c0,0.99,0.81,1.8,1.8,1.8h6.89c0.99,0,1.8-0.81,1.8-1.8v-8.48   C21.45,43.18,20.64,42.37,19.65,42.37z M11.88,52.65v-8.48c0-0.48,0.39-0.88,0.88-0.88h2.99v10.24h-2.99   C12.28,53.53,11.88,53.14,11.88,52.65z M20.53,52.65c0,0.48-0.39,0.88-0.88,0.88h-2.99V43.29h2.99c0.48,0,0.88,0.39,0.88,0.88   V52.65z"/><path d="M19.65,25.81h-6.89c-0.99,0-1.8,0.81-1.8,1.8v8.48c0,0.99,0.81,1.8,1.8,1.8h6.89c0.99,0,1.8-0.81,1.8-1.8v-8.48   C21.45,26.62,20.64,25.81,19.65,25.81z M11.88,36.09v-8.48c0-0.48,0.39-0.88,0.88-0.88h2.99v10.24h-2.99   C12.28,36.97,11.88,36.58,11.88,36.09z M20.53,36.09c0,0.48-0.39,0.88-0.88,0.88h-2.99V26.73h2.99c0.48,0,0.88,0.39,0.88,0.88   V36.09z"/><path d="M46.35,54.45h6.89c0.99,0,1.8-0.81,1.8-1.8v-8.48c0-0.99-0.81-1.8-1.8-1.8h-6.89c-0.99,0-1.8,0.81-1.8,1.8v8.48   C44.55,53.64,45.36,54.45,46.35,54.45z M54.11,44.17v8.48c0,0.48-0.39,0.88-0.88,0.88h-2.99V43.29h2.99   C53.72,43.29,54.11,43.68,54.11,44.17z M45.47,44.17c0-0.48,0.39-0.88,0.88-0.88h2.99v10.24h-2.99c-0.48,0-0.88-0.39-0.88-0.88   V44.17z"/><path d="M46.35,37.89h6.89c0.99,0,1.8-0.81,1.8-1.8v-8.48c0-0.99-0.81-1.8-1.8-1.8h-6.89c-0.99,0-1.8,0.81-1.8,1.8v8.48   C44.55,37.08,45.36,37.89,46.35,37.89z M54.11,27.61v8.48c0,0.48-0.39,0.88-0.88,0.88h-2.99V26.73h2.99   C53.72,26.73,54.11,27.12,54.11,27.61z M45.47,27.61c0-0.48,0.39-0.88,0.88-0.88h2.99v10.24h-2.99c-0.48,0-0.88-0.39-0.88-0.88   V27.61z"/><path d="M41.45,27.53c0-0.95-0.77-1.72-1.71-1.72H26.27c-0.95,0-1.71,0.77-1.71,1.72v3.7c0,0.95,0.77,1.71,1.71,1.71h13.46   c0.95,0,1.71-0.77,1.71-1.71V27.53z M25.47,31.22v-3.7c0-0.44,0.36-0.8,0.8-0.8h6.27v5.29h-6.27   C25.83,32.02,25.47,31.66,25.47,31.22z M40.53,31.22c0,0.44-0.36,0.8-0.8,0.8h-6.27v-5.29h6.27c0.44,0,0.8,0.36,0.8,0.8V31.22z"/><path d="M35.39,45.81c-0.25,0-0.46,0.21-0.46,0.46v1.19c0,0.25,0.21,0.46,0.46,0.46c0.25,0,0.46-0.21,0.46-0.46v-1.19   C35.85,46.01,35.64,45.81,35.39,45.81z"/><path d="M30.61,45.81c-0.25,0-0.46,0.21-0.46,0.46v1.19c0,0.25,0.21,0.46,0.46,0.46c0.25,0,0.46-0.21,0.46-0.46v-1.19   C31.07,46.01,30.86,45.81,30.61,45.81z"/><path d="M64.54,62.06h-1.93c0.14-0.25,0.22-0.53,0.22-0.84v-2.26c0-0.97-0.79-1.76-1.76-1.76h-2.38V23.05h2.38   c0.97,0,1.76-0.79,1.76-1.76v-2.71c0-0.97-0.79-1.76-1.76-1.76H44.46v-3.07h2.14c0.99,0,1.8-0.81,1.8-1.8V4.82   c0-0.99-0.81-1.8-1.8-1.8H19.4c-0.99,0-1.8,0.81-1.8,1.8v7.13c0,0.99,0.81,1.8,1.8,1.8h2.13v3.07H4.92c-0.97,0-1.76,0.79-1.76,1.76   v2.71c0,0.97,0.79,1.76,1.76,1.76h2.38V57.2H4.92c-0.97,0-1.76,0.79-1.76,1.76v2.26c0,0.31,0.09,0.59,0.22,0.84H1.46   C1.21,62.06,1,62.27,1,62.52c0,0.25,0.21,0.46,0.46,0.46h3.46h56.16h3.46c0.25,0,0.46-0.21,0.46-0.46   C65,62.27,64.79,62.06,64.54,62.06z M43.55,16.82h-1.86v-3.07h1.86V16.82z M25.23,16.82v-3.07h15.54v3.07H25.23z M18.52,11.95V4.82   c0-0.49,0.4-0.88,0.88-0.88h27.2c0.49,0,0.88,0.4,0.88,0.88v7.13c0,0.49-0.4,0.88-0.88,0.88H19.4   C18.91,12.84,18.52,12.44,18.52,11.95z M22.45,13.76h1.86v3.07h-1.86V13.76z M4.08,21.3v-2.71c0-0.46,0.38-0.84,0.84-0.84h56.16   c0.46,0,0.84,0.38,0.84,0.84v2.71c0,0.46-0.38,0.84-0.84,0.84H4.92C4.45,22.14,4.08,21.76,4.08,21.3z M33.46,57.2V36.51h5.6   c0.81,0,1.47,0.66,1.47,1.47V57.2H33.46z M39.06,35.59H26.94c-1.32,0-2.39,1.07-2.39,2.39V57.2H8.21V23.06h49.58V57.2H41.44V37.98   C41.44,36.67,40.37,35.59,39.06,35.59z M25.47,37.98c0-0.81,0.66-1.47,1.47-1.47h5.6V57.2h-7.07V37.98z M4.92,62.06   c-0.46,0-0.84-0.38-0.84-0.84v-2.26c0-0.46,0.38-0.84,0.84-0.84h56.16c0.46,0,0.84,0.38,0.84,0.84v2.26c0,0.46-0.38,0.84-0.84,0.84   H4.92z"/></g></svg>