<?xml version="1.0" ?><svg id="Layer_1" style="enable-background:new 0 0 66 66;" version="1.1" viewBox="0 0 66 66" xml:space="preserve" xmlns="http://www.w3.org/2000/svg" xmlns:xlink="http://www.w3.org/1999/xlink"><g><path d="M8.43,22.21h12.31c0.27,0,0.48-0.22,0.48-0.48c0-0.27-0.22-0.48-0.48-0.48H8.43c-0.27,0-0.48,0.22-0.48,0.48   C7.95,21.99,8.16,22.21,8.43,22.21z"/><path d="M8.43,30.34h23.03c0.27,0,0.48-0.22,0.48-0.48c0-0.27-0.22-0.48-0.48-0.48H8.43c-0.27,0-0.48,0.22-0.48,0.48   C7.95,30.13,8.16,30.34,8.43,30.34z"/><path d="M14.41,17.26h21.7c1.12,0,2.04-0.91,2.04-2.04V9.57c0-1.12-0.91-2.04-2.04-2.04h-21.7c-1.12,0-2.04,0.91-2.04,2.04v5.66   C12.37,16.35,13.28,17.26,14.41,17.26z M13.34,9.57c0-0.59,0.48-1.07,1.07-1.07h21.7c0.59,0,1.07,0.48,1.07,1.07v5.66   c0,0.59-0.48,1.07-1.07,1.07h-21.7c-0.59,0-1.07-0.48-1.07-1.07V9.57z"/><path d="M64.45,55.04c-0.18-1-0.74-1.88-1.58-2.46l-8.8-6.1c-0.32-0.22-0.7-0.3-1.08-0.23c-0.28,0.05-0.52,0.2-0.72,0.4l-3.23-2.24   v-4.41c0.11,0.02,0.21,0.05,0.32,0.05c0.13,0,0.27-0.01,0.4-0.04c0.58-0.11,1.08-0.43,1.42-0.91c0.34-0.48,0.46-1.07,0.36-1.65   c-0.1-0.58-0.43-1.08-0.91-1.42l-1.57-1.09v-4.7c0.76,0.15,1.54,0.23,2.34,0.23c6.52,0,11.83-5.31,11.83-11.83   c0-6.52-5.31-11.82-11.83-11.82c-0.8,0-1.58,0.08-2.34,0.23V6.8c0-2.78-2.26-5.03-5.03-5.03H6.52c-2.78,0-5.03,2.26-5.03,5.03v52.4   c0,2.78,2.26,5.03,5.03,5.03h43.32c0.27,0,0.48-0.22,0.48-0.48v-4.48c0-0.96-0.52-1.78-1.3-2.24v-6.16L49.21,51   c-0.27,0.62-0.07,1.37,0.5,1.76l8.8,6.1c0.65,0.45,1.4,0.68,2.17,0.68c0.23,0,0.46-0.02,0.69-0.06c1-0.18,1.88-0.74,2.46-1.58   C64.42,57.06,64.64,56.04,64.45,55.04z M49.74,50.19l-5.25-3.64c0.36-0.43,0.71-0.87,1.03-1.34c0.32-0.47,0.62-0.95,0.89-1.44   l5.25,3.64L49.74,50.19z M40.67,50.37c0.56,0.39,0.7,1.16,0.31,1.71c-0.39,0.56-1.16,0.7-1.71,0.31l-11.01-7.63   c-0.56-0.39-0.7-1.16-0.31-1.71c0.24-0.35,0.62-0.53,1.01-0.53c0.24,0,0.49,0.07,0.7,0.22L40.67,50.37z M31.1,42.56   c0.4-1.9,1.25-3.84,2.49-5.62c0.62-0.89,1.3-1.7,2.04-2.42c0.01-0.01,0.02-0.01,0.02-0.02c0.73-0.72,1.51-1.34,2.33-1.86l9.23,6.39   c-0.4,1.9-1.25,3.84-2.48,5.62c-1.23,1.78-2.75,3.26-4.39,4.3L31.1,42.56z M46.85,42.9c0.53-1.08,0.93-2.18,1.19-3.28l0.02,0.01   v4.11L46.85,42.9z M50.56,37.62c0.06,0.32-0.01,0.65-0.2,0.92c0,0,0,0,0,0c-0.33,0.47-0.92,0.62-1.43,0.43   c-0.09-0.12-0.22-0.21-0.39-0.21c-0.01,0-0.01,0-0.02,0l-10.89-7.55c-0.56-0.39-0.7-1.16-0.31-1.71c0.24-0.34,0.62-0.53,1.01-0.53   c0.24,0,0.49,0.07,0.7,0.22l11.01,7.63C50.32,37.02,50.5,37.3,50.56,37.62z M62.23,18.64c0,5.99-4.87,10.86-10.86,10.86   c-5.98,0-10.85-4.87-10.85-10.86c0-5.98,4.87-10.85,10.85-10.85C57.35,7.79,62.23,12.66,62.23,18.64z M49.35,63.26h-31.1v-3.99   c0-0.91,0.74-1.64,1.66-1.64H47.7c0.91,0,1.66,0.74,1.66,1.64V63.26z M48.06,56.69c-0.12-0.02-0.24-0.04-0.36-0.04H19.91   c-1.45,0-2.63,1.17-2.63,2.61v3.99H6.52c-2.24,0-4.06-1.82-4.06-4.06V6.8c0-2.24,1.82-4.06,4.06-4.06H44   c2.24,0,4.06,1.82,4.06,4.06v0.5c-4.91,1.43-8.51,5.97-8.51,11.34c0,2.37,0.71,4.57,1.91,6.42H8.43c-0.27,0-0.48,0.22-0.48,0.48   c0,0.27,0.22,0.48,0.48,0.48h33.65c0.02,0,0.04-0.01,0.06-0.01c1.5,1.87,3.56,3.28,5.92,3.97v4.28l-8.47-5.87   c-1-0.69-2.37-0.44-3.06,0.55c-0.69,1-0.44,2.37,0.56,3.06l0.05,0.04c-0.71,0.48-1.4,1.01-2.04,1.62H8.43   c-0.27,0-0.48,0.22-0.48,0.48c0,0.27,0.22,0.48,0.48,0.48h25.75c-0.49,0.55-0.96,1.12-1.39,1.74c-0.36,0.52-0.69,1.06-0.99,1.6   H8.43c-0.27,0-0.48,0.22-0.48,0.48s0.22,0.48,0.48,0.48h22.89c-0.47,1-0.82,2.01-1.07,3.02l-0.05-0.04   c-0.48-0.33-1.07-0.46-1.65-0.36c-0.58,0.11-1.08,0.43-1.42,0.91c-0.33,0.48-0.46,1.07-0.36,1.65c0.11,0.58,0.43,1.08,0.91,1.42   l11.01,7.63c0.38,0.26,0.82,0.39,1.25,0.39c0.7,0,1.39-0.33,1.81-0.95v0c0.69-1,0.44-2.37-0.56-3.06l-0.05-0.04   c0.94-0.63,1.83-1.39,2.66-2.27l4.24,2.94V56.69z M63.04,57.35c-0.43,0.63-1.09,1.05-1.83,1.18c-0.75,0.14-1.51-0.03-2.13-0.46   l-8.8-6.1c-0.22-0.15-0.27-0.45-0.12-0.66l2.59-3.74c0,0,0,0,0,0c0,0,0,0,0,0l0.11-0.16c0,0,0,0,0,0c0.07-0.11,0.18-0.18,0.31-0.2   c0.03-0.01,0.06-0.01,0.09-0.01c0.1,0,0.19,0.03,0.27,0.09l8.8,6.1c0.63,0.43,1.05,1.09,1.18,1.83   C63.64,55.96,63.47,56.72,63.04,57.35z"/><path d="M51.37,27.33c4.79,0,8.68-3.9,8.68-8.68c0-4.78-3.9-8.68-8.68-8.68c-4.78,0-8.68,3.89-8.68,8.68   C42.69,23.43,46.58,27.33,51.37,27.33z M51.37,10.94c4.25,0,7.71,3.46,7.71,7.71c0,4.25-3.46,7.71-7.71,7.71   c-4.25,0-7.71-3.46-7.71-7.71C43.66,14.39,47.12,10.94,51.37,10.94z"/><path d="M51.37,22.12c-0.82,0-1.5-0.67-1.5-1.49c0-0.27-0.22-0.48-0.48-0.48c-0.27,0-0.48,0.22-0.48,0.48   c0,1.19,0.85,2.19,1.98,2.42v0.75c0,0.27,0.22,0.48,0.48,0.48s0.48-0.22,0.48-0.48v-0.75c1.13-0.23,1.98-1.22,1.98-2.42   c0-1.36-1.11-2.47-2.47-2.47c-0.82,0-1.5-0.67-1.5-1.49c0-0.82,0.67-1.5,1.5-1.5c0.82,0,1.5,0.67,1.5,1.5   c0,0.27,0.22,0.48,0.48,0.48c0.27,0,0.48-0.22,0.48-0.48c0-1.19-0.85-2.19-1.98-2.42V13.5c0-0.27-0.22-0.48-0.48-0.48   s-0.48,0.22-0.48,0.48v0.75c-1.13,0.23-1.98,1.22-1.98,2.42c0,1.36,1.11,2.46,2.47,2.46c0.82,0,1.5,0.67,1.5,1.5   C52.87,21.45,52.19,22.12,51.37,22.12z"/><path d="M14.36,41.28c-4.11,0-7.45,3.34-7.45,7.46s3.34,7.45,7.45,7.45c4.11,0,7.45-3.34,7.45-7.45S18.47,41.28,14.36,41.28z    M14.36,55.23c-3.58,0-6.49-2.91-6.49-6.49c0-3.58,2.91-6.49,6.49-6.49c3.57,0,6.48,2.91,6.48,6.49   C20.84,52.32,17.93,55.23,14.36,55.23z"/><path d="M16.07,45.04c-0.24-0.11-0.53,0-0.64,0.24l-3.02,6.72c-0.11,0.24,0,0.53,0.24,0.64c0.06,0.03,0.13,0.04,0.2,0.04   c0.19,0,0.36-0.11,0.44-0.29l3.02-6.72C16.42,45.44,16.31,45.15,16.07,45.04z"/><path d="M13.94,46.31c0-1-0.81-1.81-1.81-1.81s-1.81,0.81-1.81,1.81c0,1,0.81,1.81,1.81,1.81S13.94,47.31,13.94,46.31z    M12.12,47.15c-0.47,0-0.84-0.37-0.84-0.84c0-0.46,0.38-0.84,0.84-0.84s0.84,0.38,0.84,0.84C12.97,46.77,12.59,47.15,12.12,47.15z"/><path d="M16.59,49.36c-1,0-1.81,0.81-1.81,1.81c0,1,0.81,1.81,1.81,1.81s1.81-0.81,1.81-1.81C18.41,50.17,17.59,49.36,16.59,49.36z    M16.59,52.02c-0.47,0-0.84-0.37-0.84-0.84c0-0.47,0.38-0.84,0.84-0.84c0.47,0,0.84,0.38,0.84,0.84   C17.44,51.64,17.06,52.02,16.59,52.02z"/></g></svg>